<svg width="45" height="45" xmlns="http://www.w3.org/2000/svg" version="1.1">
 <g>
  <title>Layer 1</title>
  <path stroke="#3e1850" id="svg_1" stroke-miterlimit="4" stroke-linecap="round" stroke-width="1.5" fill-rule="nonzero" fill="#3e1850" d="m31.73544,7.58631c-2.34896,0 -4.25151,1.94844 -4.25151,4.35406c0,0.96878 0.30823,1.86137 0.82904,2.59066c-2.07261,1.21914 -3.48623,3.49413 -3.48623,6.11744c0,2.20968 0.9991,4.1799 2.56153,5.47522c-3.18863,1.15383 -7.8759,6.04125 -7.8759,14.66228l24.44612,0c0,-8.62103 -4.68727,-13.50845 -7.8759,-14.66228c1.56242,-1.29532 2.56153,-3.26554 2.56153,-5.47522c0,-2.62332 -1.41362,-4.89832 -3.48623,-6.11744c0.52081,-0.7293 0.82904,-1.62188 0.82904,-2.59066c0,-2.40562 -1.90255,-4.35406 -4.25151,-4.35406z"/>
  <g stroke="null" id="svg_2">
   <path stroke="#9a65af" stroke-width="2" stroke-linejoin=" round" stroke-linecap=" round" fill="none" d="m1.21071,22.50016l3.08244,0a2.35302,2.44677 0 0 1 2.18831,1.59041l6.4943,17.98375l6.70608,-37.14198a2.35302,2.44677 0 0 1 2.35302,-2.00634l21.53003,0" id="svg_3"/>
  </g>
 </g>

</svg>