<svg width="45" height="45" xmlns="http://www.w3.org/2000/svg" version="1.1">
 <g>
  <title>Layer 1</title>
  <path stroke="#3e1850" d="m29.50299,0.95664c-2.78396,0 -5.03884,2.5284 -5.03884,5.65005c0,1.25714 0.36531,2.4154 0.98257,3.36178c-2.45644,1.58202 -4.13184,4.53416 -4.13184,7.9383c0,2.86739 1.18413,5.42404 3.0359,7.10492c-3.77913,1.49726 -9.33443,7.83943 -9.33443,19.02651l28.97329,0c0,-11.18709 -5.55531,-17.52925 -9.33443,-19.02651c1.85177,-1.68088 3.0359,-4.23753 3.0359,-7.10492c0,-3.40415 -1.6754,-6.3563 -4.13184,-7.9383c0.61726,-0.94637 0.98257,-2.10464 0.98257,-3.36178c0,-3.12165 -2.25488,-5.65005 -5.03884,-5.65005z" fill="#3e1850" fill-rule="nonzero" stroke-width="1.5" stroke-linecap="round" stroke-miterlimit="4" id="svg_1"/>
  <g stroke-width="4" stroke="null" id="svg_10">
   <path stroke="#9a65af" id="svg_6" d="m9.48211,34.44571l-7.33684,0" opacity="undefined" stroke-linecap="round" fill="#9a65af"/>
   <path stroke="#9a65af" id="svg_8" d="m13.27575,22.82428l-7.33684,0" opacity="undefined" stroke-linecap="round" fill="#9a65af"/>
   <path stroke="#9a65af" id="svg_9" d="m17.06938,10.54913l-7.33684,0" opacity="undefined" stroke-linecap="round" fill="#9a65af"/>
  </g>
 </g>

</svg>