<svg xmlns="http://www.w3.org/2000/svg" xmlns:xlink="http://www.w3.org/1999/xlink" version="1.1" x="0px" y="0px" viewBox="0 0 20 25" style="enable-background:new 0 0 20 20;" xml:space="preserve"><g><path d="M8.4,9.1L8.4,7.2c-1,0-2,0.4-2.7,1.1c-1.7,1.6-1.8,4.3-0.2,6c1.6,1.7,4.3,1.8,6,0.2c0.7-0.7,1.2-1.6,1.3-2.7l-1.9-0.2   c0,0.4-0.2,1-0.7,1.4c-0.9,0.9-2.3,0.8-3.2-0.1C6,12,6.1,10.6,7,9.7C7.5,9.2,8.1,9.1,8.4,9.1z"/><path d="M14.3,8.8c1.1,2.4,0.5,5.3-1.4,7.2c-2.5,2.4-6.5,2.3-8.9-0.2c-2.4-2.5-2.3-6.5,0.2-8.9c1.9-1.8,4.8-2.3,7.2-1L12.3,4   C9.2,2.4,5.4,3,2.8,5.4c-3.3,3.1-3.4,8.4-0.3,11.7c3.1,3.3,8.4,3.5,11.7,0.3c2.5-2.4,3.3-6.2,1.9-9.4L14.3,8.8z"/><path d="M16.9,3.2V0.4h-1.9v3.4l-6.5,6.5c-0.4,0.4-0.4,1,0,1.4c0.4,0.4,1,0.4,1.4,0l6.5-6.5h3.4V3.2H16.9z"/></g><text x="0" y="35" fill="#000000" font-size="5px" font-weight="bold" font-family="'Helvetica Neue', Helvetica, Arial-Unicode, Arial, Sans-serif">Created by Vectors Market</text><text x="0" y="40" fill="#000000" font-size="5px" font-weight="bold" font-family="'Helvetica Neue', Helvetica, Arial-Unicode, Arial, Sans-serif">from the Noun Project</text></svg>