<svg xmlns="http://www.w3.org/2000/svg" data-name="Layer 1" viewBox="0 0 100 125" x="0px" y="0px"><defs><style>
      .cls-1 {
        stroke-width: 0px;
      }
    </style></defs><path class="cls-1" d="m70.7392578,73.4620361l-10.3510742-49.3354492,4.3823242-11.8917236c1.293457-3.5098267-1.303772-7.2348633-5.0442505-7.2348633h-19.4525146c-3.7405396,0-6.3377075,3.7250366-5.0443115,7.2348022l4.3823242,11.8917847-10.3510132,49.3354492c-.498291,2.3748779.2738037,4.8380127,2.0385132,6.5036011l13.9141235,13.1322021c1.3435669,1.2681274,3.0651245,1.9021606,4.7866211,1.9021606s3.4429932-.6340332,4.7865601-1.9020996l13.9141846-13.1322632c1.7647095-1.6655884,2.5368042-4.1287231,2.0385132-6.5036011Zm-11.9081421-62.4620361l-3.427063,9.2995605h-10.8081665l-3.427063-9.2995605h17.6622925Zm5.7513428,64.6021118l-13.9141235,13.1322632c-.232605.2195435-.4918213.265625-.668335.265625s-.435791-.0460815-.668335-.265625l-13.9141235-13.1322632c-.2446899-.230896-.3537598-.5787964-.284668-.90802l10.1524048-48.3886108h9.4293823l10.1524658,48.3886108c.0690918.3291626-.039978.677124-.284668.90802Z"/></svg>