<svg xmlns="http://www.w3.org/2000/svg" xmlns:xlink="http://www.w3.org/1999/xlink" version="1.1" x="0px" y="0px" viewBox="0 0 100 125" style="enable-background:new 0 0 100 100;" xml:space="preserve"><g><path d="M50.2,8.5c-7.6-2.8-15.8-3.4-23.7-1.8L24.7,7v0c0-2.2-1.8-4-4-4s-4,1.8-4,4v4.9v37.3V93c0,2.2,1.8,4,4,4s4-1.8,4-4V52.5   l3.4-0.7c6.5-1.3,13.2-0.8,19.4,1.5l0.2,0.1c4.9,1.8,10,2.7,15.1,2.7c3.6,0,7.1-0.4,10.6-1.3l6.9-1.7c1.8-0.4,3-2,3-3.9V11.9   c0-1.2-0.6-2.4-1.5-3.2c-1-0.8-2.2-1-3.4-0.7l-6.9,1.7c-7,1.7-14.3,1.3-21.1-1.1L50.2,8.5z M73.4,17.5l1.9-0.5v29.1l-3.8,1   c-7,1.7-14.3,1.3-21.1-1.1l-0.2-0.1c-4.9-1.8-10-2.7-15.1-2.7c-2.9,0-5.7,0.3-8.6,0.8l-1.8,0.4V15.2l3.4-0.7   c6.5-1.3,13.2-0.8,19.4,1.5l0.2,0.1C56,19.1,64.9,19.6,73.4,17.5z"/></g></svg>