<svg width="45" height="45" xmlns="http://www.w3.org/2000/svg" version="1.1">

 <g>
  <title>Layer 1</title>
  <ellipse ry="21" rx="21" id="svg_4" cy="22.5" cx="22.5" stroke-width="1.5" stroke="#000000" fill="#ffffff"/>
  <path stroke="#000000" id="svg_1" stroke-miterlimit="4" stroke-linecap="round" stroke-width="1.5" fill-rule="nonzero" fill="#ffffff" d="m25.55794,13.47318c-1.4677,0 -2.65647,1.23586 -2.65647,2.7617c0,0.61448 0.19259,1.18063 0.51801,1.64321c-1.29503,0.77328 -2.1783,2.21626 -2.1783,3.88018c0,1.40156 0.62427,2.65123 1.60052,3.47283c-1.99235,0.73185 -4.9211,3.83185 -4.9211,9.30001l15.27468,0c0,-5.46816 -2.92875,-8.56816 -4.9211,-9.30001c0.97625,-0.8216 1.60052,-2.07127 1.60052,-3.47283c0,-1.66392 -0.88327,-3.10691 -2.1783,-3.88018c0.32542,-0.46258 0.51801,-1.02873 0.51801,-1.64321c0,-1.52584 -1.18877,-2.7617 -2.65647,-2.7617z"/>
  <g stroke="null">
   <path stroke=" rgb(0, 0, 0)" stroke-width="2" stroke-linejoin=" round" stroke-linecap=" round" fill=" none" d="m5.18455,22.5001l2.14554,0a1.63782,1.52642 0 0 1 1.52317,0.99217l4.52037,11.21917l4.66778,-23.17102a1.63782,1.52642 0 0 1 1.63782,-1.25166l14.98602,0" id="svg_3"/>
  </g>
 </g>
</svg>