<svg width="45" height="45" xmlns="http://www.w3.org/2000/svg" version="1.1">
 <g>
  <title>Layer 1</title>
  <ellipse fill="#ffffff" stroke="#000000" stroke-width="1.5" cx="22.5" cy="22.5" id="svg_4" rx="21" ry="21"/>
  <g id="svg_11">
   <path d="m24.66908,11.14587c-1.4677,0 -2.65647,1.23586 -2.65647,2.7617c0,0.61448 0.19259,1.18063 0.51801,1.64321c-1.29503,0.77328 -2.1783,2.21626 -2.1783,3.88018c0,1.40156 0.62427,2.65123 1.60052,3.47283c-1.99235,0.73185 -4.9211,3.83185 -4.9211,9.30001l15.27468,0c0,-5.46816 -2.92875,-8.56816 -4.9211,-9.30001c0.97625,-0.8216 1.60052,-2.07127 1.60052,-3.47283c0,-1.66392 -0.88327,-3.10691 -2.1783,-3.88018c0.32542,-0.46258 0.51801,-1.02873 0.51801,-1.64321c0,-1.52584 -1.18877,-2.7617 -2.65647,-2.7617z" fill="#ffffff" fill-rule="nonzero" stroke-width="1.5" stroke-linecap="round" stroke-miterlimit="4" id="svg_1" stroke="#000000"/>
   <g id="svg_10">
    <path id="svg_6" d="m13.57032,27.51506l-3.86797,0" opacity="undefined" stroke-linecap="round" stroke="#000000" fill="none"/>
    <path id="svg_8" d="m15.57032,21.8346l-3.86797,0" opacity="undefined" stroke-linecap="round" stroke="#000000" fill="none"/>
    <path id="svg_9" d="m17.57032,15.8346l-3.86797,0" opacity="undefined" stroke-linecap="round" stroke="#000000" fill="none"/>
   </g>
  </g>
 </g>

</svg>