<svg width="45" height="45" xmlns="http://www.w3.org/2000/svg" version="1.1">
 <g>
  <title>Layer 1</title>
  <ellipse fill="#ffffff" stroke="#000000" stroke-width="1.5" cx="22.5" cy="22.5" id="svg_4" rx="21" ry="21"/>
  <path d="m27.82715,13.31846c-1.4677,0 -2.65647,1.23586 -2.65647,2.7617c0,0.61448 0.19259,1.18063 0.51801,1.64321c-1.29503,0.77328 -2.1783,2.21626 -2.1783,3.88018c0,1.40156 0.62427,2.65123 1.60052,3.47283c-1.99235,0.73185 -4.9211,3.83185 -4.9211,9.30001l15.27468,0c0,-5.46816 -2.92875,-8.56816 -4.9211,-9.30001c0.97625,-0.8216 1.60052,-2.07127 1.60052,-3.47283c0,-1.66392 -0.88327,-3.10691 -2.1783,-3.88018c0.32542,-0.46258 0.51801,-1.02873 0.51801,-1.64321c0,-1.52584 -1.18877,-2.7617 -2.65647,-2.7617z" fill="#ffffff" fill-rule="nonzero" stroke-width="1.5" stroke-linecap="round" stroke-miterlimit="4" id="svg_1" stroke="#000000"/>
  <g stroke="null" id="svg_2">
   <path stroke=" rgb(0, 0, 0)" id="svg_3" d="m6.47387,21.41708l1.76645,0a1.34844,1.65535 0 0 1 1.25405,1.07598l3.72168,12.16681l3.84304,-25.1282a1.34844,1.65535 0 0 1 1.34844,-1.35738l12.33818,0" fill=" none" stroke-linecap=" round" stroke-linejoin=" round" stroke-width="2"/>
  </g>
 </g>

</svg>